# xmcd
#
# Track frame offsets:
#	150
#	12213
#	26263
#	43863
#	56675
#	68013
#	79488
#	93488
#	102413
#	113013
#	125363
#	137500
#	155550
#	170375
#	183288
#	195513
#	207900
#	221088
#
# Disc length: 3106
#
# Revision: 1
# Processed by: cddbd v1.5.1PL0 Copyright (c) Steve Scherf et al.
# Submitted via: OrangeCD 5.1
# Normalized: r0:DSETVAR1
#
DISCID=f50c2012
DTITLE=Various Artist - Roadhouse Country
DYEAR=1993
DGENRE=Country
TTITLE0=Wanda Jackson - Right Or Wrong
TTITLE1=George Jones - All I Have To Offer You Is Me
TTITLE2=Sammi Smith - With Pen In hand
TTITLE3=Don Gibson - I Love You Because
TTITLE4=Billie Jo Spears - If It Ain't Love
TTITLE5=Jim Reeves - Am I Losing You
TTITLE6=Lynn Anderson - Talking In Your Sleep
TTITLE7=Carl Belew - What's He Doing In My World
TTITLE8=Anne Murray - For Baby
TTITLE9=Bobby Edwards - You're The Reason
TTITLE10=Bille Jo Spears - Look What Thet've Done To My Song
TTITLE11=Johnny Bush - You Gave Me A Mountain
TTITLE12=Lynn Anderson - Gone At Last
TTITLE13=Del Reeves - The Girl On The Billboard
TTITLE14=Wanda Jackson - What In The World's Come Over You
TTITLE15=Faron Young - Sweet Dreams
TTITLE16=Patsy Cline - If I Could See The World
TTITLE17=Roy Drusky - Take These Chains From My Heart
EXTD=
EXTT0=
EXTT1=
EXTT2=
EXTT3=
EXTT4=
EXTT5=
EXTT6=
EXTT7=
EXTT8=
EXTT9=
EXTT10=
EXTT11=
EXTT12=
EXTT13=
EXTT14=
EXTT15=
EXTT16=
EXTT17=
PLAYORDER=
